<?xml version="1.0" encoding="utf-8" ?><svg xmlns="http://www.w3.org/2000/svg" xmlns:xlink="http://www.w3.org/1999/xlink" width="1605" height="1400" viewBox="0 0 1605 1400"><path fill="#F4D35E" transform="scale(4.45882 4.45882)" d="M225.385 78.106C229.44 77.6248 234.868 79.2699 238.056 81.7356C240.252 83.4341 242.045 85.9645 242.374 88.773C242.602 90.7112 242.131 92.6857 240.872 94.2032C238.679 96.8465 235.193 97.239 231.994 97.5581C232.135 100.903 232.197 104.43 231.871 107.762C246.05 108.799 259.953 112.217 272.997 117.872C299.958 129.957 321.063 152.191 331.726 179.746C336.395 191.899 338.572 203.259 339.162 216.22C339.231 217.74 339.705 220.672 339.108 222.017C325.333 221.327 311.429 222.661 297.657 221.721C299.662 217.216 301.575 212.766 302.245 207.842C303.738 196.875 301.434 183.699 300.228 172.63C299.745 168.193 299.702 163.227 298.272 158.977C297.313 156.127 295.593 154.272 292.882 152.979C291.121 152.139 289.264 151.699 287.334 151.481C281.046 150.772 274.456 151.192 268.122 151.183C261.612 151.175 254.855 150.805 248.368 151.31C246.41 151.463 244.268 151.768 242.42 152.431C239.135 153.611 237.206 156.105 235.801 159.167C235.591 159.786 235.435 160.414 235.295 161.053C233.808 167.809 233.426 174.995 232.8 181.876C231.782 193.074 229.752 203.781 233.535 214.72C234.361 217.109 235.176 219.226 236.553 221.361C235.709 222.095 234.058 221.96 232.941 222.001C228.077 222.176 223.174 222.026 218.305 222.016L192.801 222.014L113.454 222.025C114.076 214.304 114.636 206.522 116.003 198.891C119.516 179.117 128.433 160.7 141.767 145.68C144.127 143.008 146.475 140.257 149.058 137.799C168.528 119.277 194.147 109.371 220.783 107.725C220.111 104.508 220.505 100.641 220.532 97.3488C218.153 97.5818 214.811 96.5893 212.946 95.0905C211.54 93.9613 210.775 92.4347 210.607 90.649C210.368 88.1154 211.082 85.4544 212.754 83.515C215.842 79.9334 220.828 78.4249 225.385 78.106Z"/><path fill="#F4D35E" transform="scale(4.45882 4.45882)" d="M249.503 161.794C249.561 161.79 249.618 161.784 249.675 161.78C250.798 161.708 253.476 161.92 254.293 162.789C254.799 163.327 254.675 165.242 254.66 165.979C254.569 170.293 254.025 174.673 253.704 178.978C253.2 185.738 252.955 192.608 253.289 199.383C254.63 200.027 255.759 200.743 256.954 201.622C258.289 201 259.557 200.291 260.835 199.559C261.938 195.619 261.644 191.229 261.747 187.158C261.945 179.411 261.879 169.976 263.129 162.426C264.938 161.915 267.512 161.506 269.308 162.244C270.241 162.628 270.682 163.203 270.976 164.14C271.74 166.574 271.548 169.48 271.612 172.014C271.773 178.356 271.379 194.613 273.424 199.825C274.561 200.469 275.815 200.943 277.014 201.46C278.343 200.816 279.612 199.988 280.884 199.237C280.649 193.089 280.868 186.92 280.601 180.763C280.391 175.916 279.135 168.298 279.771 163.834C279.835 163.384 280.099 162.813 280.49 162.553C281.504 161.881 283.393 161.639 284.587 161.867C286.007 162.138 287.425 162.787 288.22 164.055C289.506 166.107 290.197 177.498 290.536 180.703C292.253 196.894 295.314 209.417 282.929 222.339C280.056 225.337 277.535 227.339 276.38 231.501C284.075 231.83 291.778 231.747 299.479 231.752L331.063 231.761L344.629 231.716C347.262 231.705 350 231.549 352.617 231.836C353.953 231.983 355.242 232.389 356.222 233.352C357.263 234.375 357.666 235.806 357.684 237.233C357.721 240.236 355.952 242.856 353.909 244.905C351.481 247.341 348.1 249.626 344.735 250.389C339.558 251.562 328.064 250.894 322.247 250.904L275.835 251.001C276.596 258.491 277.97 290.53 276.176 296.692C275.229 298.567 274.02 300.385 272.266 301.598C270.237 302.972 267.748 303.488 265.34 303.034C262.629 302.497 260.072 300.846 258.568 298.512C257.525 296.893 257.204 294.965 257.04 293.076C256.787 290.174 256.976 287.167 256.998 284.255C257.057 276.657 257.394 269.142 257.807 261.558C257.992 258.152 257.814 254.301 258.535 250.984L151.275 250.945L123.324 250.975C117.791 250.98 111.718 251.411 106.269 250.479C102.843 249.893 99.8853 247.808 97.4247 245.435C95.2589 243.347 92.9412 240.504 92.9218 237.331C92.9132 235.922 93.4228 234.665 94.4412 233.687C95.7886 232.394 97.1707 231.935 98.9962 231.788C105.128 231.291 111.664 231.729 117.838 231.737L155.145 231.733L230.6 231.747C239.876 231.752 249.189 231.508 258.457 231.624C254.123 222.862 246.601 221.216 243.141 209.664C242.437 207.313 242.009 204.941 241.986 202.482C241.955 200.05 242.019 197.618 242.178 195.191C242.407 192.148 245.126 165.224 245.884 163.973C246.742 162.557 247.963 162.136 249.503 161.794Z"/><path fill="#F4D35E" transform="scale(4.45882 4.45882)" d="M136.726 44.4254C136.72 43.5024 136.642 42.5997 137.063 41.7513C139.337 39.9729 180.586 40.8752 185.557 41.4471C187.299 41.6475 189.173 42.2695 190.331 43.666C190.59 43.978 190.783 44.3428 190.961 44.7046C192.264 47.0644 192.171 49.6569 192.217 52.2867C192.35 59.756 191.998 67.2479 191.933 74.7197C191.889 79.6238 192.31 85.0101 191.682 89.8577C191.5 91.2626 191.136 92.7131 190.105 93.744C189.165 94.6843 187.942 95.2409 186.646 95.4801C181.06 96.512 174.084 96.0012 168.34 96.0162C157.85 96.0837 147.359 96.0703 136.869 95.976C136.28 92.7986 136.556 89.3184 136.566 86.0916L136.591 70.7366C136.574 64.71 136.465 58.6882 136.499 52.6608C136.514 49.9632 136.345 47.0924 136.726 44.4254ZM149.198 83.702C152.142 83.4662 155.17 83.6637 158.124 83.6767C164.448 83.7045 170.802 83.8087 177.123 83.6272C177.717 83.5913 178.28 83.522 178.864 83.4068C179.285 82.9167 179.24 82.414 179.276 81.7827C179.523 77.4197 179.173 72.9545 179.096 68.5857C179.022 64.3457 179.202 60.0783 179.309 55.8382C179.235 55.2156 179.33 54.5199 179.359 53.8908C179.279 53.9068 179.2 53.9236 179.121 53.9388C174.843 54.7585 150.5 53.3708 149.176 54.525C148.947 64.2342 149.396 73.9809 149.198 83.702Z"/><path fill="#FFFED1" transform="scale(4.45882 4.45882)" d="M136.869 95.976C136.28 92.7986 136.556 89.3184 136.566 86.0916L136.591 70.7366C136.574 64.71 136.465 58.6882 136.499 52.6608C136.514 49.9632 136.345 47.0924 136.726 44.4254C137.155 48.2373 136.795 52.3719 136.789 56.2243L136.955 79.3643C136.954 84.1922 136.565 89.3757 137.047 94.1586C154.122 93.3667 171.307 94.3963 188.395 93.8891C189.175 93.2717 190.047 92.668 190.737 91.9537C191.774 86.9383 191.168 80.6004 191.151 75.4611L190.961 44.7046C192.264 47.0644 192.171 49.6569 192.217 52.2867C192.35 59.756 191.998 67.2479 191.933 74.7197C191.889 79.6238 192.31 85.0101 191.682 89.8577C191.5 91.2626 191.136 92.7131 190.105 93.744C189.165 94.6843 187.942 95.2409 186.646 95.4801C181.06 96.512 174.084 96.0012 168.34 96.0162C157.85 96.0837 147.359 96.0703 136.869 95.976Z"/><path fill="#F4D35E" transform="scale(4.45882 4.45882)" d="M166.245 63.6127C167.719 63.5418 169.256 63.7469 170.729 63.8518C170.991 67.3951 171.061 70.9141 171.048 74.4646C168.503 74.579 165.985 74.6159 163.437 74.5523L158.791 74.4399C158.684 70.8859 158.713 67.3291 158.876 63.7773C161.333 63.7534 163.79 63.6986 166.245 63.6127Z"/><path fill="#FEDFD4" transform="scale(4.45882 4.45882)" d="M179.359 53.8908C179.911 54.1623 180.369 54.241 180.602 54.8489C181.405 56.9465 180.874 66.8268 180.742 69.5077C180.788 71.9695 181.3 81.4793 180.641 83.083C180.591 83.2069 180.286 83.4533 180.18 83.563C179.142 83.9444 178.179 83.942 177.123 83.6272C177.717 83.5913 178.28 83.522 178.864 83.4068C179.285 82.9167 179.24 82.414 179.276 81.7827C179.523 77.4197 179.173 72.9545 179.096 68.5857C179.022 64.3457 179.202 60.0783 179.309 55.8382C179.235 55.2156 179.33 54.5199 179.359 53.8908Z"/><path fill="#F9D7AF" transform="scale(4.45882 4.45882)" d="M179.359 53.8908C179.911 54.1623 180.369 54.241 180.602 54.8489C181.405 56.9465 180.874 66.8268 180.742 69.5077C180.576 67.4185 180.161 65.3773 179.955 63.2947C179.727 60.9731 180.024 58.0146 179.309 55.8382C179.235 55.2156 179.33 54.5199 179.359 53.8908Z"/><path fill="#F4D35E" transform="scale(4.45882 4.45882)" d="M47.6724 41.5948C51.5932 40.5674 56.2543 40.936 60.3078 40.9175L75.2536 40.8562C80.7058 40.8292 91.2253 40.1033 96.2289 41.1438C96.8649 41.7064 96.8354 43.1809 96.8847 44.0226C97.1242 48.1151 97.0134 52.2555 97.0257 56.3557L97.0609 80.2788C97.063 85.523 96.9528 90.8082 97.2473 96.0437C92.4684 96.4685 87.4579 96.1215 82.6553 96.0842C78.7699 96.054 74.7437 96.3001 70.8828 96.0267C67.5716 96.2779 64.1704 96.1415 60.8487 96.1532C54.9673 96.2005 49.0856 96.1806 43.2048 96.0937C42.5068 90.2574 42.9919 81.5815 42.9882 75.4493C42.9829 66.5586 42.5409 56.861 43.0725 48.1142C43.1483 46.867 43.1815 45.2498 43.8841 44.1807C44.7561 42.8539 46.1402 41.9608 47.6724 41.5948ZM57.2528 83.2751C61.9711 82.6472 67.3368 83.0034 72.1144 83.0227C75.6847 83.0371 79.6241 82.7636 83.1588 83.2569C84.6168 81.0448 82.5082 59.3261 83.6828 54.3781C74.8595 54.1849 66.0334 54.1436 57.2087 54.2542L57.2528 83.2751Z"/><path fill="#F9D7AF" transform="scale(4.45882 4.45882)" d="M47.6724 41.5948C51.5932 40.5674 56.2543 40.936 60.3078 40.9175L75.2536 40.8562C80.7058 40.8292 91.2253 40.1033 96.2289 41.1438C96.8649 41.7064 96.8354 43.1809 96.8847 44.0226C97.1242 48.1151 97.0134 52.2555 97.0257 56.3557L97.0609 80.2788C97.063 85.523 96.9528 90.8082 97.2473 96.0437C92.4684 96.4685 87.4579 96.1215 82.6553 96.0842C78.7699 96.054 74.7437 96.3001 70.8828 96.0267C73.8904 95.2692 80.7875 95.6769 84.2677 95.63C87.7235 95.5835 91.1674 95.3823 94.6255 95.3753C94.5739 88.6816 94.7705 81.9702 94.6101 75.2804C94.5395 72.335 94.0159 69.4287 94.0255 66.4817L94.0996 53.112C94.1461 49.6481 94.3842 46.1356 93.957 42.6932L93.9294 42.7163C91.631 41.5892 61.3349 42.0538 56.1689 41.9766C53.6352 41.9386 50.2724 42.314 47.8493 41.6484C47.7899 41.632 47.7314 41.6127 47.6724 41.5948Z"/><path fill="#F5FFDB" transform="scale(4.45882 4.45882)" d="M55.2791 54.0463C60.5154 53.974 65.7639 54.0486 71.0017 54.0354C75.5886 54.0239 80.2099 53.8907 84.7913 54.1324C85.2341 59.3651 84.9918 64.7957 84.9907 70.0514C84.9897 74.4665 85.3524 79.3068 84.6712 83.6646C75.5482 84.4112 64.5417 84.1874 55.3266 83.7578C54.9651 79.5005 55.1608 75.1448 55.1738 70.8756C55.1908 65.2667 55.11 59.6533 55.2791 54.0463ZM57.2528 83.2751C61.9711 82.6472 67.3368 83.0034 72.1144 83.0227C75.6847 83.0371 79.6241 82.7636 83.1588 83.2569C84.6168 81.0448 82.5082 59.3261 83.6828 54.3781C74.8595 54.1849 66.0334 54.1436 57.2087 54.2542L57.2528 83.2751Z"/><path fill="#F4D35E" transform="scale(4.45882 4.45882)" d="M64.9519 63.8045C68.1815 63.5991 71.5708 63.2559 74.7908 63.703L75.7531 63.7991C76.7014 65.9191 76.3369 69.9168 76.2667 72.2409C76.2426 73.0408 76.2199 73.8537 75.6005 74.4341C72.959 75.7691 67.7151 74.9005 64.7228 74.7431C64.249 71.304 64.7926 67.2877 64.9519 63.8045Z"/><path fill="#F4D35E" transform="scale(4.45882 4.45882)" d="M44.8415 138.258C46.0327 137.427 47.0815 137.179 48.5206 137.023C51.8922 136.66 55.3397 136.785 58.7273 136.789L74.1738 136.818C79.5059 136.818 88.0405 136.152 92.9613 137.048C93.9198 137.222 95.5121 138.028 96.0469 138.885C96.811 140.11 96.9656 142.213 97.0661 143.613C97.5521 150.384 97.1757 157.428 97.1634 164.22C97.1544 169.161 97.7332 184.309 96.4698 188.457C96.4015 188.689 96.3249 188.918 96.2401 189.144C95.4386 189.88 94.7001 190.631 93.6 190.874C90.5047 191.557 81.822 191.127 78.2131 191.135C69.4521 191.154 60.5356 191.516 51.7922 191.154C49.6153 191.064 46.9152 191.063 45.0508 189.837C44.8211 172.645 44.7513 155.452 44.8415 138.258ZM55.1892 148.987L55.3254 178.751L55.624 179.015L56.1876 178.977C65.7559 178.873 75.4601 178.672 85.0205 178.983C85.0231 172.989 84.9529 166.995 84.8101 161.003C84.7406 157.172 84.4691 153.14 84.8657 149.332L84.6024 148.884L84.3624 148.931C80.3791 149.298 76.2167 149.055 72.2143 149.046C66.5519 149.032 60.848 149.15 55.1892 148.987Z"/><path fill="#F4D35E" transform="scale(4.45882 4.45882)" d="M67.7284 158.609C70.2498 158.349 72.8701 158.496 75.3978 158.591C75.4804 162.495 75.5627 166.368 75.4877 170.273C74.3536 170.377 73.2009 170.388 72.0625 170.433C69.2257 170.472 66.4163 170.441 63.5866 170.212C63.5375 166.395 63.5806 162.617 63.7942 158.806L67.7284 158.609Z"/><path fill="#F4D35E" transform="scale(4.45882 4.45882)" d="M115.353 63.6454C118.463 63.4574 121.568 63.2613 124.68 63.49C125.462 63.4822 126.151 63.435 126.889 63.737C127.498 64.5079 127.51 65.1117 127.445 66.0878C127.589 69.8875 128.153 81.8187 127.05 84.8921C125.956 85.9215 122.65 85.5116 121.181 85.4671C119.824 85.4261 118.444 85.4328 117.106 85.1888C117.22 88.508 117.483 92.2692 117.027 95.5374C120.352 95.2144 123.913 95.3617 127.248 95.5549C127.245 99.1194 127.279 102.684 127.352 106.248C129.274 105.942 136.806 105.404 138.189 106.484C138.817 106.974 138.792 108.831 138.826 109.595C139.093 115.695 138.959 121.86 139.02 127.969C134.952 128.104 130.888 128.023 126.818 127.959C126.754 124.674 126.643 121.381 126.682 118.095C123.6 118.417 120.064 118.449 116.987 118.073C117.124 123.971 117.505 132.118 117.027 137.808C120.257 137.741 123.527 137.664 126.749 137.934C126.752 141.893 126.791 145.857 126.738 149.816C123.343 149.902 119.947 149.961 116.552 149.992C116.89 152.669 116.631 155.35 116.89 158.019C113.525 158.262 110.149 158.296 106.78 158.123C106.206 158.163 106.026 158.125 105.536 157.823C104.917 156.442 105.099 154.581 105.071 153.074C104.884 149.329 104.995 145.519 104.967 141.765C104.935 137.275 104.771 132.718 105.049 128.238C99.7138 128.33 94.2581 128.37 88.9316 128.08C87.5625 128.044 86.1593 128.154 84.7884 128.195C84.6851 124.907 84.3887 121.444 84.834 118.176C81.5289 118.54 78.0453 118.306 74.7192 118.247L74.7122 114.344C75.1937 112.142 74.9167 109.802 75.1173 107.564C79.8761 108.166 90.3587 108.446 94.9736 107.753C94.9495 111.02 94.75 114.492 95.2279 117.722C96.3631 117.835 97.521 117.999 98.6612 117.995C98.0207 117.736 96.5869 117.532 96.2457 117.01L96.5663 116.76C99.5465 116.63 113.739 117.119 114.996 116.512C114.672 114.66 115.331 107.281 114.603 106.384C111.574 106.878 108.114 106.538 105.043 106.413C104.837 99.6995 104.958 93.0094 104.907 86.2978C104.924 85.6742 104.845 84.7119 105.321 84.2482C107.222 82.3972 112.499 82.9724 114.971 83.0508C115.023 79.7337 114.776 76.4088 114.784 73.0895C114.791 70.3108 115.236 67.2237 114.86 64.4864L115.353 63.6454Z"/><path fill="#F4D35E" transform="scale(4.45882 4.45882)" d="M115.353 63.6454C118.463 63.4574 121.568 63.2613 124.68 63.49C125.462 63.4822 126.151 63.435 126.889 63.737C127.498 64.5079 127.51 65.1117 127.445 66.0878C127.589 69.8875 128.153 81.8187 127.05 84.8921C125.956 85.9215 122.65 85.5116 121.181 85.4671C119.824 85.4261 118.444 85.4328 117.106 85.1888C116.984 84.7759 116.859 84.4138 116.654 84.031C114.157 83.4707 109.401 84.1212 106.622 84.1254C106.606 91.4496 107.008 98.8216 106.872 106.127C109.13 106.112 112.496 105.682 114.603 106.384C111.574 106.878 108.114 106.538 105.043 106.413C104.837 99.6995 104.958 93.0094 104.907 86.2978C104.924 85.6742 104.845 84.7119 105.321 84.2482C107.222 82.3972 112.499 82.9724 114.971 83.0508C115.023 79.7337 114.776 76.4088 114.784 73.0895C114.791 70.3108 115.236 67.2237 114.86 64.4864L115.353 63.6454Z"/><path fill="#FEDFD4" transform="scale(4.45882 4.45882)" d="M115.353 63.6454C115.325 69.0695 114.767 75.4964 116.773 80.6276C116.835 81.7147 116.828 82.8049 116.836 83.8935C120.033 83.8679 123.567 84.3783 126.712 83.9795C128.17 81.9306 126.23 69.8077 127.384 66.2578C127.403 66.2005 127.425 66.1444 127.445 66.0878C127.589 69.8875 128.153 81.8187 127.05 84.8921C125.956 85.9215 122.65 85.5116 121.181 85.4671C119.824 85.4261 118.444 85.4328 117.106 85.1888C116.984 84.7759 116.859 84.4138 116.654 84.031C114.157 83.4707 109.401 84.1212 106.622 84.1254C106.606 91.4496 107.008 98.8216 106.872 106.127C109.13 106.112 112.496 105.682 114.603 106.384C111.574 106.878 108.114 106.538 105.043 106.413C104.837 99.6995 104.958 93.0094 104.907 86.2978C104.924 85.6742 104.845 84.7119 105.321 84.2482C107.222 82.3972 112.499 82.9724 114.971 83.0508C115.023 79.7337 114.776 76.4088 114.784 73.0895C114.791 70.3108 115.236 67.2237 114.86 64.4864L115.353 63.6454Z"/><path fill="#F9D7AF" transform="scale(4.45882 4.45882)" d="M115.353 63.6454C118.463 63.4574 121.568 63.2613 124.68 63.49C122.363 64.4435 118.915 64.1168 116.403 64.1296C116.319 66.9653 116.493 69.7924 116.541 72.6267C116.583 75.1219 116.459 77.6314 116.751 80.1136C116.771 80.2864 116.775 80.4538 116.773 80.6276C114.767 75.4964 115.325 69.0695 115.353 63.6454Z"/><path fill="#FAF0CA" transform="scale(4.45882 4.45882)" d="M104.987 127.951C105.035 125.656 104.525 120.869 105.684 118.942L106.113 118.832C106.908 119.756 107.006 127.011 106.884 128.513C106.879 128.575 106.861 128.634 106.849 128.695C106.786 138.471 107.171 148.371 106.78 158.123C106.206 158.163 106.026 158.125 105.536 157.823C104.917 156.442 105.099 154.581 105.071 153.074C104.884 149.329 104.995 145.519 104.967 141.765C104.935 137.275 104.771 132.718 105.049 128.238C99.7138 128.33 94.2581 128.37 88.9316 128.08C94.1858 127.733 99.7226 127.764 104.987 127.951Z"/><path fill="#FFFED1" transform="scale(4.45882 4.45882)" d="M105.594 128.18C105.913 128.6 106.309 129.078 106.421 129.606C107.149 133.053 106.099 146.224 105.554 150.291C105.432 151.202 105.329 152.193 105.071 153.074C104.884 149.329 104.995 145.519 104.967 141.765C104.935 137.275 104.771 132.718 105.049 128.238L105.594 128.18Z"/><path fill="#FFF8D6" transform="scale(4.45882 4.45882)" d="M96.5663 116.76C99.5465 116.63 113.739 117.119 114.996 116.512L115.025 117.501C113.775 118.613 101.039 118.09 98.6612 117.995C98.0207 117.736 96.5869 117.532 96.2457 117.01L96.5663 116.76Z"/><path fill="#F4D35E" transform="scale(4.45882 4.45882)" d="M13.0941 84.2999C13.0562 84.212 13.0207 84.1231 12.9805 84.0363C12.5722 83.1532 12.5277 82.4463 12.4978 81.48C12.3608 77.0446 12.5272 72.5614 12.5237 68.1207L12.506 38.5329C12.5035 34.1506 11.8794 22.9004 12.6156 19.2965C12.93 17.7578 14.6782 15.689 16.0149 14.8979C17.419 14.0668 19.7993 13.8539 21.4294 13.7415C27.1692 13.3459 75.6824 12.9701 79.2866 14.126C81.559 14.8549 83.1171 16.3829 84.1821 18.4816C85.0234 19.786 85.0839 21.6034 84.7592 23.0825C84.5561 24.008 84.0795 25.2776 83.2522 25.8105C82.0409 27.61 80.7115 28.357 78.5819 28.7772C74.6717 29.5487 66.8708 29.094 62.5261 29.114C51.1252 29.1665 38.518 29.7187 27.2524 28.7871C27.5107 40.6512 27.586 52.5185 27.4784 64.3849C27.4779 69.2791 27.9893 77.0534 27.1749 81.7118C26.9166 83.189 26.111 84.6386 25.0941 85.7308C23.6695 87.2608 22.0029 88.0162 19.9251 88.066C19.8362 88.0682 19.7473 88.0676 19.6585 88.0684C18.8894 88.0499 18.0691 87.9377 17.3326 87.7113C15.3808 87.1112 14.0539 86.1083 13.0941 84.2999Z"/><path fill="#FFF8D6" transform="scale(4.45882 4.45882)" d="M25.3256 28.2298C37.9399 27.9317 50.5181 27.8898 63.138 27.9404C67.4964 27.9579 76.1399 28.6198 79.7649 27.9974C81.0843 27.7709 82.2424 26.6331 83.2522 25.8105C82.0409 27.61 80.7115 28.357 78.5819 28.7772C74.6717 29.5487 66.8708 29.094 62.5261 29.114C51.1252 29.1665 38.518 29.7187 27.2524 28.7871C27.5107 40.6512 27.586 52.5185 27.4784 64.3849C27.4779 69.2791 27.9893 77.0534 27.1749 81.7118C26.9166 83.189 26.111 84.6386 25.0941 85.7308C23.6695 87.2608 22.0029 88.0162 19.9251 88.066C19.8362 88.0682 19.7473 88.0676 19.6585 88.0684C21.4642 87.4505 23.457 86.1437 24.8586 84.8524C25.438 78.4916 25.1793 72.0156 25.18 65.6325C25.1812 53.1789 24.9781 40.6774 25.3256 28.2298Z"/><path fill="#FFF8D6" transform="scale(4.45882 4.45882)" d="M13.0941 84.2999C13.0562 84.212 13.0207 84.1231 12.9805 84.0363C12.5722 83.1532 12.5277 82.4463 12.4978 81.48C12.3608 77.0446 12.5272 72.5614 12.5237 68.1207L12.506 38.5329C12.5035 34.1506 11.8794 22.9004 12.6156 19.2965C12.93 17.7578 14.6782 15.689 16.0149 14.8979C17.419 14.0668 19.7993 13.8539 21.4294 13.7415C27.1692 13.3459 75.6824 12.9701 79.2866 14.126C81.559 14.8549 83.1171 16.3829 84.1821 18.4816C82.186 16.3536 80.4247 16.0482 77.5857 15.9556C65.4327 15.5592 53.1652 15.8999 40.9993 15.8906C33.2057 15.8847 22.5641 15.205 15.1022 16.3924C13.5214 17.7601 12.9239 18.8154 12.7717 20.9316C12.5058 24.6284 12.7773 28.4467 12.846 32.1554C12.9499 37.5978 12.9862 43.0413 12.9549 48.4846C12.9693 55.5199 12.9447 62.5552 12.8811 69.5902C12.82 74.29 12.2004 79.6963 13.0941 84.2999Z"/><path fill="#F4D35E" transform="scale(4.45882 4.45882)" d="M17.556 231.784C17.8654 231.755 18.1755 231.736 18.486 231.724C21.2779 231.63 22.8259 232.655 24.8093 234.51C25.3903 235.963 25.5204 237.267 25.5969 238.814C25.8023 242.968 25.643 247.175 25.6179 251.335L25.5746 271.007C25.5633 275.175 25.5775 279.344 25.6171 283.512C25.6462 286.231 25.8471 289.028 25.566 291.729C37.4203 291.877 49.2757 291.911 61.1306 291.834C65.9469 291.827 75.0002 291.263 79.3388 292.254C80.8021 292.588 81.7911 293.598 82.8528 294.594C83.1272 295.331 83.3641 296.102 83.4581 296.885C83.6819 298.75 83.4985 300.816 82.2846 302.333C81.1271 303.779 79.7168 304.165 77.9481 304.389C71.3396 304.937 62.5085 304.497 55.6831 304.5C50.0107 304.502 20.4462 305.068 17.1689 303.991C15.5349 303.454 14.1769 302.383 13.4607 300.783C12.8873 299.503 12.8931 297.627 12.8424 296.222C12.4596 285.628 12.8891 274.889 12.8916 264.28C12.8937 255.387 12.388 245.922 12.9962 237.097C13.0718 236 13.3301 235.097 13.7416 234.08C14.9368 233.07 16.1197 232.402 17.556 231.784Z"/><path fill="#F4D35E" transform="scale(4.45882 4.45882)" d="M275.223 18.6907C276.949 16.6307 278.383 15.6439 281.083 15.4024C284.974 15.0544 289.01 15.2419 292.916 15.2408L312.861 15.2396L329.493 15.2497C332.797 15.2535 336.279 15.0613 339.558 15.4751C340.808 15.6328 342.144 16.1965 343.118 17.0017C343.667 17.4562 344.591 18.4675 344.663 19.1965C344.667 19.2376 344.66 19.2791 344.659 19.3203C345.057 20.2212 345.075 21.1541 345.115 22.1206C345.363 28.0109 345.719 81.0922 344.786 83.4422C344.194 84.9321 343.052 85.9845 341.564 86.5526C339.931 87.1765 337.852 87.5729 336.186 86.8491C334.531 86.1303 333.44 84.3936 332.85 82.758C332.445 81.6344 332.663 80.2509 332.079 79.2535C332.233 79.0123 332.34 78.7779 332.405 78.4972C332.876 76.4808 332.685 61.5487 332.431 58.8878C332.387 58.4283 332.256 58.0724 331.982 57.7001C332.524 56.5147 332.695 29.5526 332.197 28.2088C332.178 28.158 332.156 28.1087 332.136 28.0583C332.118 28.0131 332.101 27.9675 332.083 27.9221C321.612 28.0916 311.101 27.819 300.623 27.8567C294.702 27.878 285.864 28.5025 280.278 27.6601C278.963 27.4515 277.742 26.8514 276.773 25.9381C275.603 24.8238 274.885 23.1337 274.866 21.5183C274.856 20.5662 275.042 19.6213 275.223 18.6907Z"/><path fill="#F4D35E" transform="scale(4.45882 4.45882)" d="M336.927 263.124C337.448 263.058 337.977 262.99 338.502 262.981C340.15 262.954 342.141 263.748 343.317 264.899C345.316 266.855 345.026 270.007 345.031 272.589L345.034 289.051C345.034 292.266 345.409 296.05 344.696 299.176C344.4 300.478 343.446 301.824 342.503 302.746C341.362 303.861 339.977 304.119 338.441 304.327C334.38 304.877 329.874 304.516 325.754 304.515L301.211 304.506C299.397 304.381 297.288 304.05 295.906 302.755C294.681 301.608 294.029 299.78 294.02 298.125C294.012 296.5 294.63 294.867 295.808 293.732C296.637 292.932 297.637 292.449 298.766 292.243C302.905 291.489 307.8 291.977 312.003 291.985C318.87 291.997 325.768 291.85 332.632 291.992C334.1 288.74 331.738 271.794 333.252 266.669C333.845 264.658 335.235 264.036 336.927 263.124Z"/><path fill="#F4D35E" transform="scale(4.45882 4.45882)" d="M43.1807 106.494C50.2114 105.199 58.1532 105.516 65.2668 106.087C65.3233 113.449 65.1205 120.858 65.3321 128.213C62.406 128.214 59.474 128.253 56.5493 128.155L53.0945 128.229C53.1764 125.176 52.5553 121.407 53.3182 118.489C52.5701 118.181 51.185 118.418 50.3631 118.463C48.0199 118.214 45.6457 118.137 43.3006 118.399C42.4227 116.432 42.8627 108.896 43.1807 106.494Z"/><path fill="#FFFED1" transform="scale(4.45882 4.45882)" d="M43.1807 106.494C50.2114 105.199 58.1532 105.516 65.2668 106.087C65.3233 113.449 65.1205 120.858 65.3321 128.213C62.406 128.214 59.474 128.253 56.5493 128.155L56.4965 128.095C59.2921 127.91 62.1319 128.003 64.9339 127.999C65.0797 121.22 65.0916 114.438 64.9697 107.658C58.2306 108.174 51.5074 107.713 44.762 107.851C44.5147 111.19 44.7218 114.594 44.9124 117.931C47.8702 118.057 50.8429 117.824 53.7943 118.125L53.3182 118.489C52.5701 118.181 51.185 118.418 50.3631 118.463C48.0199 118.214 45.6457 118.137 43.3006 118.399C42.4227 116.432 42.8627 108.896 43.1807 106.494Z"/><path fill="#FFFED1" transform="scale(4.45882 4.45882)" d="M53.7943 118.125L54.5374 118.395C55.3213 120.167 54.0055 127.459 55.7238 128.024C55.9439 128.097 56.2628 128.084 56.4965 128.095L56.5493 128.155L53.0945 128.229C53.1764 125.176 52.5553 121.407 53.3182 118.489L53.7943 118.125Z"/><path fill="#F4D35E" transform="scale(4.45882 4.45882)" d="M107.003 54.2271C106.262 54.2347 105.748 54.291 105.117 53.8387C104.676 51.2946 104.461 44.5259 105.301 42.0344C105.485 41.4889 105.588 41.4194 106.105 41.1555C109.176 39.5869 123.869 40.1225 127.266 41.2441C127.371 45.5674 127.385 49.8924 127.309 54.2162C122.938 54.2261 118.566 54.1963 114.196 54.1268C111.91 54.1011 109.241 53.808 107.003 54.2271Z"/><path fill="#FFF8D6" transform="scale(4.45882 4.45882)" d="M107.003 54.2271C106.262 54.2347 105.748 54.291 105.117 53.8387C104.676 51.2946 104.461 44.5259 105.301 42.0344C105.485 41.4889 105.588 41.4194 106.105 41.1555C109.176 39.5869 123.869 40.1225 127.266 41.2441C122.123 42.828 112.523 42.0143 106.853 42.0118C106.643 46.0334 106.705 50.2106 107.003 54.2271Z"/><path fill="#F4D35E" transform="scale(4.45882 4.45882)" d="M152.133 106.106C154.083 106.01 158.623 105.248 160.154 106.568C161.507 107.734 160.97 115.957 161.069 118.046C159.404 118.16 157.731 118.13 156.062 118.129C153.083 118.072 150.112 117.997 147.134 118.172C147.002 114.283 146.938 110.473 147.35 106.598L152.133 106.106Z"/><defs><linearGradient id="gradient_0" gradientUnits="userSpaceOnUse" x1="45.946281" y1="162.51736" x2="42.366203" y2="162.2169"><stop offset="0" stop-color="#FFADAF" stop-opacity="0.95294118"/><stop offset="1" stop-color="#9AF28D"/></linearGradient></defs><path fill="url(#gradient_0)" transform="scale(4.45882 4.45882)" d="M44.8415 138.258C44.7513 155.452 44.8211 172.645 45.0508 189.837C44.3679 188.963 43.807 187.998 43.6111 186.892C43.2202 184.684 43.4764 182.055 43.4786 179.799L43.4918 165.649L43.4003 149.545C43.3939 146.726 43.2172 143.671 43.5723 140.878C43.707 139.818 44.2265 139.094 44.8415 138.258Z"/><path fill="#FFF8D6" fill-opacity="0.98823529" transform="scale(4.45882 4.45882)" d="M74.8848 106.478C80.4803 105.931 91.2284 105.348 96.4781 106.436C96.5878 109.617 97.251 113.664 96.5663 116.76L96.2457 117.01C96.5869 117.532 98.0207 117.736 98.6612 117.995C97.521 117.999 96.3631 117.835 95.2279 117.722C94.75 114.492 94.9495 111.02 94.9736 107.753C90.3587 108.446 79.8761 108.166 75.1173 107.564C74.9167 109.802 75.1937 112.142 74.7122 114.344C74.3713 111.761 74.6901 109.066 74.8848 106.478Z"/><defs><linearGradient id="gradient_1" gradientUnits="userSpaceOnUse" x1="47.201195" y1="119.54142" x2="47.055256" y2="118.26501"><stop offset="0" stop-color="#F1FFE0" stop-opacity="0"/><stop offset="1" stop-color="#FFEDD7" stop-opacity="0.0078431377"/></linearGradient></defs><path fill="url(#gradient_1)" transform="scale(4.45882 4.45882)" d="M43.3006 118.399C45.6457 118.137 48.0199 118.214 50.3631 118.463C49.5251 118.57 48.6601 118.599 47.8165 118.66C48.7964 118.647 50.9246 118.586 51.6923 119.125C51.1816 119.205 50.6684 119.275 50.1584 119.359C47.9215 119.728 45.5699 119.135 43.3011 119.336L43.0924 119.357L42.889 119.186L43.3006 118.399Z"/></svg>